<svg viewBox="0 0 777.6 155.2" xmlns="http://www.w3.org/2000/svg" xmlns:xlink="http://www.w3.org/1999/xlink" id="Layer_1" overflow="hidden"><g><g><path d="M154.6 53C151.3 52.1 150.3 50.8 150.2 47.5 148.9 21.5 124.5 2.7 99 7.6 85.2 10.3 75.4 18.2 68.4 30.3 67.7 30.3 67.6 30.4 67.4 30.3 49.6 23.4 38.1 28.9 32.5 46.8 32.1 48 30.7 49.2 29.6 49.8 15.6 57.1 8.9 70.9 12.2 85.7 14.1 94.2 19.1 101.2 26.1 105.6L26.1 97.4C21.9 93.6 19 88.3 18 82 16.2 70.7 23.5 58.8 34.9 54.7 36.2 54.2 37.4 53.8 38.8 53.3 38.4 44.8 41.3 38.2 49.4 34.9 57.8 31.5 64.3 35.3 70.4 41.6 79.5 19.5 94.7 8.8 118.7 15.3 127.7 17.7 134.3 23.9 139 31.8 143.8 39.8 144.4 48.7 143.4 57.9 145 58 146.2 58.1 147.4 58.2 160.2 58.7 169.9 68.9 169.7 81.7 169.5 93.9 159.6 103.6 146.9 103.6 132 103.6 117 103.6 102.1 103.6L102.1 110.4C117.2 110.4 132.3 110.3 147.5 110.2 162.3 110.1 174.3 98.9 175.9 84.7 177.7 70 169.1 56.9 154.6 53Z" fill="#00AD93"/></g></g><g><g><path d="M55.1 70.5 55.1 85.2 79.7 85.2 79.7 109.8 94.5 109.8 94.5 70.5Z" fill="#FFFFFF"/><path d="M84.7 40.9 84.7 55.7 109.3 55.7 109.3 80.2 124.1 80.2 124.1 40.9Z" fill="#FFFFFF"/><path d="M64.9 131.3 33.7 131.3 33.7 100 64.9 100Z" fill="#FFFFFF"/></g></g><g><path d="M462 111C458.2 111 455.2 112.3 453 114.8 450.8 117.3 449.7 120.8 449.7 125.2 449.7 129.7 450.8 133.2 452.9 135.7 455 138.2 458 139.4 461.9 139.4 464.3 139.4 467.1 139 470.1 138.1L470.1 141.6C467.7 142.5 464.8 142.9 461.3 142.9 456.2 142.9 452.3 141.4 449.5 138.3 446.7 135.2 445.4 130.8 445.4 125.2 445.4 121.6 446.1 118.5 447.4 115.9 448.7 113.2 450.6 111.2 453.2 109.7 455.7 108.3 458.7 107.5 462.1 107.5 465.7 107.5 468.9 108.2 471.6 109.5L469.9 112.9C467.2 111.7 464.6 111 462 111Z" fill="#00AD93"/><path d="M492.2 142.4 492.2 108 496.2 108 496.2 138.9 511.4 138.9 511.4 142.5 492.2 142.5 492.2 142.4Z" fill="#00AD93"/><path d="M561.7 125.2C561.7 130.7 560.3 135.1 557.5 138.2 554.7 141.4 550.8 142.9 545.9 142.9 540.8 142.9 536.9 141.3 534.1 138.2 531.3 135.1 530 130.7 530 125 530 119.4 531.4 115 534.2 111.9 537 108.8 540.9 107.3 546 107.3 551 107.3 554.8 108.9 557.6 112 560.4 115.1 561.7 119.6 561.7 125.2ZM534.2 125.2C534.2 129.9 535.2 133.4 537.2 135.8 539.2 138.2 542.1 139.4 545.9 139.4 549.7 139.4 552.6 138.2 554.6 135.8 556.6 133.4 557.5 129.8 557.5 125.2 557.5 120.6 556.5 117 554.6 114.6 552.7 112.2 549.8 111 546 111 542.2 111 539.3 112.2 537.3 114.6 535.2 117 534.2 120.5 534.2 125.2Z" fill="#00AD93"/><path d="M609.9 108 609.9 130.3C609.9 134.2 608.7 137.3 606.3 139.6 603.9 141.9 600.7 143 596.5 143 592.3 143 589.1 141.9 586.9 139.6 584.7 137.3 583.5 134.2 583.5 130.3L583.5 108 587.5 108 587.5 130.5C587.5 133.4 588.3 135.6 589.9 137.1 591.5 138.6 593.8 139.4 596.8 139.4 599.7 139.4 602 138.6 603.5 137.1 605.1 135.6 605.9 133.3 605.9 130.4L605.9 108 609.9 108Z" fill="#00AD93"/><path d="M661.1 124.9C661.1 130.6 659.6 134.9 656.5 138 653.4 141 649 142.5 643.2 142.5L633.6 142.5 633.6 108 644.2 108C649.6 108 653.7 109.5 656.7 112.5 659.6 115.4 661.1 119.5 661.1 124.9ZM656.8 125C656.8 120.5 655.7 117.1 653.4 114.8 651.1 112.5 647.8 111.4 643.3 111.4L637.5 111.4 637.5 139 642.4 139C647.2 139 650.8 137.8 653.2 135.5 655.6 133.2 656.8 129.6 656.8 125Z" fill="#00AD93"/></g><g><path d="M240 76C240 81.1 238.2 85 234.5 87.9 230.8 90.7 225.8 92.2 219.5 92.2 212.7 92.2 207.4 91.3 203.7 89.6L203.7 83C206.1 84 208.6 84.8 211.4 85.4 214.2 86 217 86.3 219.7 86.3 224.2 86.3 227.5 85.5 229.8 83.8 232.1 82.1 233.2 79.7 233.2 76.7 233.2 74.7 232.8 73.1 232 71.8 231.2 70.5 229.9 69.3 228 68.3 226.1 67.2 223.3 66 219.4 64.6 214 62.7 210.2 60.4 207.9 57.8 205.6 55.2 204.4 51.7 204.4 47.5 204.4 43.1 206.1 39.5 209.4 36.9 212.7 34.3 217.2 33 222.7 33 228.4 33 233.7 34.1 238.5 36.2L236.4 42C231.6 40 227 39 222.5 39 218.9 39 216.2 39.8 214.2 41.3 212.2 42.8 211.2 44.9 211.2 47.7 211.2 49.7 211.6 51.3 212.3 52.6 213 53.9 214.3 55 216 56.1 217.8 57.2 220.4 58.3 224 59.6 230.1 61.8 234.2 64.1 236.5 66.5 238.9 68.8 240 72 240 76Z" fill="#FFFFFF"/><path d="M284.1 69.6C284.1 76.7 282.3 82.2 278.8 86.1 275.3 90 270.3 92 264.1 92 260.2 92 256.8 91.1 253.8 89.3 250.8 87.5 248.5 84.9 246.9 81.5 245.3 78.1 244.5 74.1 244.5 69.6 244.5 62.5 246.3 57.1 249.8 53.1 253.3 49.2 258.2 47.2 264.5 47.2 270.6 47.2 275.4 49.2 278.9 53.2 282.4 57.3 284.1 62.8 284.1 69.6ZM251.2 69.6C251.2 75.1 252.3 79.3 254.5 82.2 256.7 85.1 260 86.5 264.3 86.5 268.6 86.5 271.8 85.1 274.1 82.2 276.3 79.3 277.4 75.1 277.4 69.5 277.4 64 276.3 59.8 274.1 57 271.9 54.1 268.6 52.7 264.2 52.7 259.9 52.7 256.7 54.1 254.5 56.9 252.3 59.9 251.2 64.1 251.2 69.6Z" fill="#FFFFFF"/><path d="M298.1 91.3 291.5 91.3 291.5 29.9 298.1 29.9 298.1 91.3Z" fill="#FFFFFF"/><path d="M334.6 91.3 333.3 85.1 333 85.1C330.8 87.8 328.7 89.6 326.5 90.6 324.4 91.6 321.7 92 318.5 92 314.2 92 310.8 90.9 308.4 88.7 306 86.5 304.7 83.3 304.7 79.3 304.7 70.6 311.7 66 325.7 65.6L333 65.4 333 62.7C333 59.3 332.3 56.8 330.8 55.2 329.3 53.6 327 52.8 323.8 52.8 320.2 52.8 316.1 53.9 311.6 56.1L309.6 51.1C311.7 49.9 314.1 49 316.6 48.4 319.1 47.7 321.7 47.4 324.2 47.4 329.4 47.4 333.2 48.5 335.7 50.8 338.2 53.1 339.4 56.8 339.4 61.8L339.4 91.3 334.6 91.3ZM319.8 86.7C323.9 86.7 327.1 85.6 329.4 83.3 331.7 81 332.9 77.9 332.9 73.9L332.9 70 326.3 70.3C321.1 70.5 317.3 71.3 315 72.7 312.7 74.1 311.5 76.4 311.5 79.4 311.5 81.8 312.2 83.6 313.7 84.8 315.2 86.1 317.2 86.7 319.8 86.7Z" fill="#FFFFFF"/><path d="M366.2 92.1C359.9 92.1 355.1 90.2 351.6 86.3 348.2 82.4 346.4 77 346.4 69.9 346.4 62.7 348.1 57.1 351.6 53.1 355.1 49.2 360.1 47.2 366.5 47.2 368.6 47.2 370.7 47.4 372.7 47.9 374.8 48.3 376.4 48.9 377.6 49.5L375.6 55.1C374.2 54.5 372.6 54 370.9 53.7 369.2 53.3 367.7 53.1 366.4 53.1 357.6 53.1 353.2 58.7 353.2 69.9 353.2 75.2 354.3 79.3 356.4 82.1 358.5 84.9 361.7 86.4 365.9 86.4 369.5 86.4 373.2 85.6 377 84.1L377 89.9C374.3 91.4 370.6 92.1 366.2 92.1Z" fill="#FFFFFF"/><path d="M401.7 92.1C395.3 92.1 390.3 90.2 386.6 86.3 382.8 82.4 381 77 381 70 381 63 382.7 57.5 386.2 53.4 389.6 49.3 394.2 47.2 400 47.2 405.4 47.2 409.7 49 412.9 52.6 416.1 56.2 417.6 60.9 417.6 66.7L417.6 70.8 387.8 70.8C387.9 75.9 389.2 79.7 391.7 82.4 394.1 85 397.6 86.3 402 86.3 406.7 86.3 411.3 85.3 415.8 83.4L415.8 89.2C413.5 90.2 411.3 90.9 409.2 91.4 407.1 91.9 404.6 92.1 401.7 92.1ZM399.9 52.7C396.4 52.7 393.7 53.8 391.6 56.1 389.5 58.4 388.3 61.5 387.9 65.5L410.5 65.5C410.5 61.4 409.6 58.2 407.7 56 405.9 53.8 403.3 52.7 399.9 52.7Z" fill="#FFFFFF"/><path d="M477.7 50.2C477.7 55.8 475.8 60.1 472 63 468.2 66 462.8 67.5 455.9 67.5L447 67.5 447 91.3 443 91.3 443 33.6 457 33.6C470.8 33.6 477.7 39.1 477.7 50.2ZM446.9 64 454.8 64C461.3 64 466 62.9 468.9 60.8 471.8 58.7 473.2 55.2 473.2 50.4 473.2 46 471.8 42.7 469.1 40.5 466.4 38.4 462.1 37.3 456.4 37.3L446.8 37.3 446.8 64 446.9 64Z" fill="#FFFFFF"/><path d="M488.6 48.4 488.6 76.2C488.6 80.5 489.5 83.7 491.3 85.6 493.1 87.6 495.9 88.5 499.8 88.5 504.9 88.5 508.7 87.2 511.1 84.6 513.5 82 514.7 77.8 514.7 72L514.7 48.4 518.6 48.4 518.6 91.3 515.3 91.3 514.6 85.4 514.4 85.4C511.6 89.9 506.6 92.1 499.5 92.1 489.7 92.1 484.9 86.9 484.9 76.4L484.9 48.4 488.6 48.4Z" fill="#FFFFFF"/><path d="M547 47.6C553 47.6 557.5 49.5 560.6 53.3 563.6 57.1 565.2 62.6 565.2 69.9 565.2 77 563.6 82.5 560.4 86.4 557.2 90.3 552.7 92.2 546.9 92.2 543.8 92.2 541.1 91.6 538.6 90.3 536.1 89 534.2 87.2 532.8 84.9L532.4 84.9 531.3 91.4 528.9 91.4 528.9 29.9 532.8 29.9 532.8 45.3C532.8 47.6 532.7 49.7 532.6 51.7L532.5 55.1 532.8 55.1C534.4 52.5 536.4 50.6 538.7 49.4 540.9 48.2 543.7 47.6 547 47.6ZM546.9 51.1C541.8 51.1 538.2 52.5 536 55.4 533.8 58.3 532.7 63.1 532.7 69.7L532.7 70.4C532.7 76.9 533.8 81.5 536.1 84.3 538.4 87.1 541.9 88.5 546.7 88.5 551.4 88.5 554.9 86.9 557.3 83.6 559.7 80.3 560.9 75.7 560.9 69.6 560.9 57.3 556.3 51.1 546.9 51.1Z" fill="#FFFFFF"/><path d="M605.8 76.4C605.8 81.2 604 85 600.5 87.9 597 90.7 592.3 92.1 586.4 92.1 579.3 92.1 573.9 91.3 570.2 89.8L570.2 85.8C574.4 87.6 579.7 88.4 586.1 88.4 590.8 88.4 594.6 87.3 597.4 85.1 600.2 82.9 601.6 80.1 601.6 76.6 601.6 74.4 601.1 72.6 600.2 71.2 599.3 69.8 597.8 68.5 595.7 67.3 593.6 66.1 590.6 64.8 586.5 63.5 580.6 61.5 576.5 59.3 574.3 56.9 572 54.5 570.9 51.4 570.9 47.5 570.9 43.2 572.6 39.7 576 36.9 579.4 34.2 583.7 32.8 589 32.8 594.4 32.8 599.5 33.8 604.3 35.9L602.8 39.4C598 37.4 593.4 36.4 589.1 36.4 584.8 36.4 581.4 37.4 578.9 39.4 576.4 41.4 575.1 44.1 575.1 47.5 575.1 49.6 575.5 51.4 576.3 52.8 577.1 54.2 578.3 55.4 580.1 56.5 581.9 57.6 584.9 58.9 589.2 60.4 593.7 62 597.1 63.5 599.3 64.9 601.6 66.4 603.2 68 604.3 69.9 605.3 71.6 605.8 73.8 605.8 76.4Z" fill="#FFFFFF"/><path d="M616.3 48.4 616.3 76.2C616.3 80.5 617.2 83.7 619 85.6 620.8 87.6 623.6 88.5 627.5 88.5 632.6 88.5 636.4 87.2 638.8 84.6 641.2 82 642.4 77.8 642.4 72L642.4 48.4 646.3 48.4 646.3 91.3 643 91.3 642.3 85.4 642 85.4C639.2 89.9 634.2 92.1 627.1 92.1 617.3 92.1 612.5 86.9 612.5 76.4L612.5 48.4 616.3 48.4Z" fill="#FFFFFF"/><path d="M674.7 47.6C680.7 47.6 685.2 49.5 688.3 53.3 691.3 57.1 692.9 62.6 692.9 69.9 692.9 77 691.3 82.5 688.1 86.4 684.9 90.3 680.4 92.2 674.6 92.2 671.5 92.2 668.8 91.6 666.3 90.3 663.8 89 661.9 87.2 660.5 84.9L660.1 84.9 659 91.4 656.6 91.4 656.6 29.9 660.5 29.9 660.5 45.3C660.5 47.6 660.4 49.7 660.3 51.7L660.2 55.1 660.5 55.1C662.1 52.5 664.1 50.6 666.4 49.4 668.7 48.2 671.5 47.6 674.7 47.6ZM674.7 51.1C669.6 51.1 666 52.5 663.8 55.4 661.6 58.3 660.5 63.1 660.5 69.7L660.5 70.4C660.5 76.9 661.6 81.5 663.9 84.3 666.2 87.1 669.7 88.5 674.5 88.5 679.2 88.5 682.7 86.9 685.1 83.6 687.5 80.3 688.7 75.7 688.7 69.6 688.7 57.3 684 51.1 674.7 51.1Z" fill="#FFFFFF"/><path d="M718.2 61.2 735.3 61.2 735.3 64.4 718.2 64.4 718.2 81.5 715 81.5 715 64.4 697.9 64.4 697.9 61.2 715 61.2 715 44 718.2 44 718.2 61.2Z" fill="#FFFFFF"/></g></svg>