<svg viewBox="0 0 777.6 155.2" xmlns="http://www.w3.org/2000/svg" xmlns:xlink="http://www.w3.org/1999/xlink" id="Layer_1" overflow="hidden"><g><path d="M237.1 74.6C237.1 80.1 235.2 84.5 231.4 87.6 227.6 90.7 222.4 92.3 215.9 92.3 208.8 92.3 203.4 91.3 199.5 89.4L199.5 82.3C202 83.4 204.6 84.3 207.5 84.9 210.4 85.5 213.3 85.8 216.1 85.8 220.7 85.8 224.2 84.9 226.6 83 228.9 81.1 230.1 78.6 230.1 75.3 230.1 73.1 229.7 71.3 228.9 69.9 228.1 68.5 226.7 67.2 224.7 66 222.7 64.8 219.8 63.5 215.8 62 210.2 59.9 206.3 57.4 203.9 54.5 201.5 51.6 200.3 47.9 200.3 43.3 200.3 38.4 202 34.6 205.5 31.7 209 28.8 213.5 27.4 219.2 27.4 225.1 27.4 230.6 28.5 235.6 30.8L233.4 37.2C228.5 35 223.7 33.9 219 33.9 215.3 33.9 212.4 34.7 210.4 36.4 208.3 38.1 207.3 40.4 207.3 43.3 207.3 45.5 207.7 47.3 208.4 48.7 209.2 50.1 210.5 51.4 212.3 52.5 214.1 53.7 216.9 54.9 220.6 56.4 226.9 58.8 231.2 61.3 233.6 64 236 66.8 237.1 70.3 237.1 74.6Z" fill="#3A3A3A"/><path d="M282.9 67.7C282.9 75.4 281.1 81.4 277.4 85.7 273.7 90 268.6 92.2 262.1 92.2 258.1 92.2 254.5 91.2 251.4 89.2 248.3 87.2 245.9 84.4 244.2 80.7 242.5 77 241.7 72.7 241.7 67.7 241.7 60 243.5 54 247.2 49.7 250.9 45.4 255.9 43.3 262.4 43.3 268.7 43.3 273.7 45.5 277.4 49.9 281 54.2 282.9 60.2 282.9 67.7ZM248.7 67.7C248.7 73.7 249.8 78.3 252.1 81.5 254.4 84.7 257.8 86.2 262.2 86.2 266.6 86.2 270 84.6 272.3 81.5 274.6 78.4 275.8 73.8 275.8 67.7 275.8 61.7 274.6 57.1 272.3 54 270 50.9 266.6 49.3 262.1 49.3 257.7 49.3 254.3 50.8 252 53.9 249.8 57 248.7 61.6 248.7 67.7Z" fill="#3A3A3A"/><path d="M297.4 91.3 290.6 91.3 290.6 24.3 297.4 24.3 297.4 91.3Z" fill="#3A3A3A"/><path d="M335.2 91.3 333.8 84.6 333.5 84.6C331.3 87.6 329 89.6 326.8 90.6 324.6 91.6 321.8 92.2 318.5 92.2 314.1 92.2 310.6 91 308 88.6 305.5 86.2 304.2 82.8 304.2 78.3 304.2 68.8 311.4 63.8 325.9 63.3L333.5 63 333.5 60.1C333.5 56.4 332.7 53.7 331.2 51.9 329.7 50.1 327.3 49.3 323.9 49.3 320.2 49.3 315.9 50.5 311.2 52.9L309.1 47.4C311.3 46.1 313.7 45.1 316.4 44.4 319 43.7 321.7 43.3 324.3 43.3 329.6 43.3 333.6 44.5 336.2 47 338.8 49.5 340.1 53.5 340.1 59L340.1 91.2 335.2 91.2ZM319.8 86.3C324 86.3 327.3 85.1 329.8 82.6 332.2 80.2 333.4 76.7 333.4 72.3L333.4 68 326.6 68.3C321.2 68.5 317.3 69.4 314.9 70.9 312.5 72.5 311.3 74.9 311.3 78.2 311.3 80.8 312 82.8 313.5 84.1 315.1 85.6 317.2 86.3 319.8 86.3Z" fill="#3A3A3A"/><path d="M367.9 92.2C361.4 92.2 356.4 90.1 352.8 85.9 349.2 81.7 347.5 75.7 347.5 68 347.5 60.1 349.3 54 352.9 49.7 356.5 45.4 361.7 43.2 368.3 43.2 370.5 43.2 372.6 43.4 374.8 43.9 377 44.4 378.6 45 379.9 45.6L377.8 51.7C376.3 51.1 374.7 50.5 372.9 50.1 371.1 49.7 369.6 49.5 368.2 49.5 359.1 49.5 354.5 55.6 354.5 67.8 354.5 73.6 355.6 78.1 357.8 81.2 360 84.3 363.3 85.9 367.7 85.9 371.4 85.9 375.3 85.1 379.2 83.4L379.2 89.7C376.3 91.4 372.5 92.2 367.9 92.2Z" fill="#3A3A3A"/><path d="M404.7 92.2C398.1 92.2 392.8 90.1 389 85.8 385.2 81.6 383.3 75.6 383.3 68.1 383.3 60.5 385.1 54.4 388.6 50 392.2 45.5 396.9 43.3 402.9 43.3 408.5 43.3 413 45.2 416.2 49.1 419.5 53 421.1 58.1 421.1 64.5L421.1 69 390.2 69C390.3 74.5 391.7 78.8 394.2 81.6 396.7 84.5 400.3 85.9 404.9 85.9 409.7 85.9 414.5 84.8 419.2 82.7L419.2 89.1C416.8 90.2 414.5 91 412.4 91.4 410.3 91.9 407.7 92.2 404.7 92.2ZM402.8 49.2C399.2 49.2 396.3 50.4 394.2 52.9 392.1 55.4 390.8 58.8 390.4 63.2L413.8 63.2C413.8 58.7 412.8 55.2 410.9 52.8 409.1 50.4 406.4 49.2 402.8 49.2Z" fill="#3A3A3A"/><path d="M483.4 46.4C483.4 52.5 481.4 57.2 477.5 60.4 473.6 63.6 468 65.3 460.8 65.3L451.6 65.3 451.6 91.3 447.4 91.3 447.4 28.3 462 28.3C476.3 28.4 483.4 34.4 483.4 46.4ZM451.6 61.5 459.8 61.5C466.5 61.5 471.4 60.3 474.4 58 477.4 55.7 478.9 51.9 478.9 46.6 478.9 41.7 477.5 38.2 474.6 35.8 471.8 33.5 467.4 32.3 461.4 32.3L451.5 32.3 451.5 61.5Z" fill="#3A3A3A"/><path d="M494.7 44.5 494.7 74.8C494.7 79.5 495.6 82.9 497.5 85.1 499.4 87.2 502.3 88.3 506.3 88.3 511.6 88.3 515.5 86.9 518 84.1 520.5 81.3 521.7 76.7 521.7 70.4L521.7 44.5 525.7 44.5 525.7 91.3 522.3 91.3 521.6 84.8 521.4 84.8C518.5 89.7 513.4 92.1 506 92.1 495.9 92.1 490.8 86.4 490.8 75L490.8 44.5 494.7 44.5Z" fill="#3A3A3A"/><path d="M555.2 43.6C561.4 43.6 566.1 45.7 569.3 49.8 572.5 53.9 574 59.9 574 67.9 574 75.7 572.3 81.7 569 85.9 565.7 90.1 561 92.2 555 92.2 551.8 92.2 549 91.5 546.4 90.1 543.8 88.7 541.9 86.8 540.4 84.2L540 84.2 538.9 91.3 536.4 91.3 536.4 24.3 540.5 24.3 540.5 41.1C540.5 43.6 540.4 46 540.3 48.1L540.2 51.8 540.5 51.8C542.2 49 544.2 46.9 546.6 45.6 549 44.3 551.9 43.6 555.2 43.6ZM555.1 47.5C549.9 47.5 546.1 49.1 543.8 52.2 541.5 55.4 540.4 60.6 540.4 67.8L540.4 68.5C540.4 75.6 541.6 80.6 543.9 83.7 546.3 86.8 549.9 88.3 554.9 88.3 559.8 88.3 563.4 86.5 565.9 82.9 568.4 79.3 569.6 74.2 569.6 67.6 569.7 54.2 564.9 47.5 555.1 47.5Z" fill="#3A3A3A"/><path d="M616.2 75.1C616.2 80.4 614.4 84.5 610.7 87.6 607 90.7 602.2 92.2 596.1 92.2 588.8 92.2 583.2 91.4 579.3 89.7L579.3 85.3C583.6 87.2 589.1 88.2 595.8 88.2 600.7 88.2 604.6 87 607.5 84.6 610.4 82.2 611.8 79.1 611.8 75.3 611.8 72.9 611.3 70.9 610.4 69.4 609.4 67.8 607.9 66.4 605.7 65.1 603.5 63.8 600.4 62.4 596.2 60.9 590.1 58.7 585.9 56.3 583.5 53.7 581.2 51.1 580 47.7 580 43.4 580 38.7 581.8 34.8 585.3 31.9 588.8 28.9 593.3 27.4 598.8 27.4 604.4 27.4 609.7 28.5 614.6 30.8L613.1 34.6C608.1 32.4 603.4 31.3 598.9 31.3 594.5 31.3 591 32.4 588.3 34.5 585.7 36.7 584.4 39.6 584.4 43.3 584.4 45.6 584.8 47.5 585.6 49 586.4 50.5 587.7 51.8 589.5 53 591.3 54.2 594.5 55.6 598.9 57.3 603.6 59 607.1 60.6 609.4 62.2 611.7 63.8 613.5 65.6 614.5 67.6 615.6 69.8 616.2 72.2 616.2 75.1Z" fill="#3A3A3A"/><path d="M627.1 44.5 627.1 74.8C627.1 79.5 628 82.9 629.9 85.1 631.8 87.2 634.7 88.3 638.7 88.3 644 88.3 647.9 86.9 650.4 84.1 652.9 81.3 654.1 76.7 654.1 70.4L654.1 44.5 658.1 44.5 658.1 91.3 654.7 91.3 654 84.8 653.8 84.8C650.9 89.7 645.8 92.1 638.4 92.1 628.3 92.1 623.2 86.4 623.2 75L623.2 44.5 627.1 44.5Z" fill="#3A3A3A"/><path d="M687.6 43.6C693.8 43.6 698.5 45.7 701.7 49.8 704.9 53.9 706.4 59.9 706.4 67.9 706.4 75.7 704.7 81.7 701.4 85.9 698.1 90.1 693.4 92.2 687.4 92.2 684.2 92.2 681.4 91.5 678.8 90.1 676.2 88.7 674.3 86.8 672.8 84.2L672.4 84.2 671.3 91.3 668.8 91.3 668.8 24.3 672.9 24.3 672.9 41.1C672.9 43.6 672.8 46 672.7 48.1L672.6 51.8 672.9 51.8C674.6 49 676.6 46.9 679 45.6 681.4 44.3 684.3 43.6 687.6 43.6ZM687.6 47.5C682.4 47.5 678.6 49.1 676.3 52.2 674 55.4 672.9 60.6 672.9 67.8L672.9 68.5C672.9 75.6 674.1 80.6 676.4 83.7 678.8 86.8 682.4 88.3 687.4 88.3 692.3 88.3 695.9 86.5 698.4 82.9 700.9 79.3 702.1 74.2 702.1 67.6 702.1 54.2 697.3 47.5 687.6 47.5Z" fill="#3A3A3A"/><path d="M732.7 58.4 750.5 58.4 750.5 61.9 732.7 61.9 732.7 80.5 729.3 80.5 729.3 61.9 711.6 61.9 711.6 58.4 729.3 58.4 729.3 39.7 732.7 39.7 732.7 58.4Z" fill="#3A3A3A"/></g><g><g><path d="M154.6 53C151.3 52.1 150.3 50.8 150.2 47.5 148.9 21.5 124.5 2.7 99 7.6 85.2 10.3 75.4 18.2 68.4 30.3 67.7 30.3 67.6 30.4 67.4 30.3 49.6 23.4 38.1 28.9 32.5 46.8 32.1 48 30.7 49.2 29.6 49.8 15.6 57.1 8.9 70.9 12.2 85.7 14.1 94.2 19.1 101.2 26.1 105.6L26.1 97.4C21.9 93.6 19 88.3 18 82 16.2 70.7 23.5 58.8 34.9 54.7 36.2 54.2 37.4 53.8 38.8 53.3 38.4 44.8 41.3 38.2 49.4 34.9 57.8 31.5 64.3 35.3 70.4 41.6 79.5 19.5 94.7 8.8 118.7 15.3 127.7 17.7 134.3 23.9 139 31.8 143.8 39.8 144.4 48.7 143.4 57.9 145 58 146.2 58.1 147.4 58.2 160.2 58.7 169.9 68.9 169.7 81.7 169.5 93.9 159.6 103.6 146.9 103.6 132 103.6 117 103.6 102.1 103.6L102.1 110.4C117.2 110.4 132.3 110.3 147.5 110.2 162.3 110.1 174.3 98.9 175.9 84.7 177.7 70 169.1 56.9 154.6 53Z" fill="#00AD93"/></g></g><g><g><path d="M55.1 70.5 55.1 85.2 79.7 85.2 79.7 109.8 94.5 109.8 94.5 70.5Z" fill="#474847"/><path d="M84.7 40.9 84.7 55.7 109.3 55.7 109.3 80.2 124.1 80.2 124.1 40.9Z" fill="#474847"/><path d="M64.9 131.3 33.7 131.3 33.7 100 64.9 100Z" fill="#474847"/></g></g></svg>